PathFileType	4	(X/Y/Z)	/Users/itak/Documents/Research/Walk-IL/dataset/trc/00171_00008.trc
DataRate	CameraRate	NumFrames	NumMarkers	Units	OrigDataRate	OrigDataStartFrame	OrigNumFrames
100.000000	100.000000	4	53	mm	100.000000	202	539
Frame#	Time	RPSI			LPSI			L3			STRN			T10			C7			CLAV			RBAK			LBAK			LSHO			LUPA			LAEL			LAOL			LWTS			LWPS			LFRA			LIFD			LHPS			LHTS			RSHO			RUPA			RAEL			RAOL			RWTS			RWPS			RFRA			RIFD			RHTS			RHPS			RBHD			LFHD			RFHD			LBHD			LHIP			RHIP			RASI			LASI			LKNE			LTHI			LANK			LTIP			LTOE			LMT1			LMT5			LHEE			RKNE			RTHI			RANK			RTIP			RTOE			RMT1			RMT5			RHEE			
		X1	Y1	Z1	X2	Y2	Z2	X3	Y3	Z3	X4	Y4	Z4	X5	Y5	Z5	X6	Y6	Z6	X7	Y7	Z7	X8	Y8	Z8	X9	Y9	Z9	X10	Y10	Z10	X11	Y11	Z11	X12	Y12	Z12	X13	Y13	Z13	X14	Y14	Z14	X15	Y15	Z15	X16	Y16	Z16	X17	Y17	Z17	X18	Y18	Z18	X19	Y19	Z19	X20	Y20	Z20	X21	Y21	Z21	X22	Y22	Z22	X23	Y23	Z23	X24	Y24	Z24	X25	Y25	Z25	X26	Y26	Z26	X27	Y27	Z27	X28	Y28	Z28	X29	Y29	Z29	X30	Y30	Z30	X31	Y31	Z31	X32	Y32	Z32	X33	Y33	Z33	X34	Y34	Z34	X35	Y35	Z35	X36	Y36	Z36	X37	Y37	Z37	X38	Y38	Z38	X39	Y39	Z39	X40	Y40	Z40	X41	Y41	Z41	X42	Y42	Z42	X43	Y43	Z43	X44	Y44	Z44	X45	Y45	Z45	X46	Y46	Z46	X47	Y47	Z47	X48	Y48	Z48	X49	Y49	Z49	X50	Y50	Z50	X51	Y51	Z51	X52	Y52	Z52	X53	Y53	Z53	

203	2.02	-54.39193344116211	1070.051147460938	354.5057067871094	-56.9157600402832	1071.049194335938	232.4491424560547	-50.13673782348633	1110.344360351562	297.3488159179688	230.3484344482422	1295.632446289062	272.7130737304688	-64.92462921142578	1270.903564453125	298.4674377441406	20.44708061218262	1533.61328125	276.0252380371094	210.3421478271484	1411.10791015625	261.7708740234375	-49.03246307373047	1368.9521484375	396.2081298828125	0.7495566606521606	1506.278198242188	176.6660919189453	67.21070098876953	1483.920166015625	91.40283203125	20.04638481140137	1351.128784179688	28.33808135986328	24.24773597717285	1132.998046875	21.10314178466797	-4.306885242462158	1118.692749023438	104.0998077392578	157.4244842529297	911.9720458984375	32.21210479736328	70.60221099853516	880.8978271484375	14.87915420532227	40.97557067871094	1021.804931640625	9.796136856079102	199.7908935546875	733.3462524414062	52.88288497924805	100.7108306884766	814.031982421875	14.2934103012085	171.5134124755859	835.0618896484375	11.02686214447021	101.6410980224609	1510.521240234375	449.9197387695312	86.83106231689453	1446.373291015625	523.2892456054688	72.60040283203125	1158.2080078125	588.6531982421875	54.40956497192383	1148.116333007812	493.59228515625	220.6002502441406	940.4802856445312	547.5048828125	156.3337554931641	917.60546875	603.892822265625	103.011474609375	1086.053466796875	602.8899536132812	247.6502838134766	757.3002319335938	517.5074462890625	256.3247985839844	850.3155517578125	551.3794555664062	190.3232727050781	837.2857055664062	595.8369140625	94.90656280517578	1693.352294921875	334.1392211914062	221.8745880126953	1723.149658203125	158.9886322021484	255.0698089599609	1740.929077148438	282.5069580078125	51.2311897277832	1684.081665039062	201.5167999267578	42.20629501342773	1007.105163574219	109.1307373046875	94.96337127685547	1012.213989257812	476.6447448730469	176.1794281005859	1036.741577148438	421.0587463378906	164.6608581542969	1037.22216796875	162.0048217773438	234.8706970214844	534.0161743164062	90.18014526367188	176.0616912841797	670.2542114257812	77.29449462890625	184.5778656005859	55.08447647094727	93.31747436523438	207.4345245361328	299.8995361328125	77.23504638671875	396.6293640136719	85.49990081787109	56.76576995849609	364.4446716308594	79.97911834716797	114.4233703613281	278.1400451660156	56.35210418701172	27.64407539367676	156.1927337646484	54.66403198242188	173.8992767333984	92.52978515625	510.684326171875	426.7368774414062	136.6675415039062	777.6749267578125	472.0203247070312	-39.05675506591797	35.51340866088867	392.2513122558594	94.98320770263672	388.01806640625	402.9188537597656	184.7474822998047	46.3175163269043	370.5264587402344	133.8872680664062	43.26598739624023	324.0692749023438	71.99813842773438	32.15653991699219	436.6939697265625	-85.881591796875	38.95859527587891	320.7239685058594	
204	2.03	-60.25406646728516	1070.86962890625	354.9936218261719	-62.46258544921875	1072.12939453125	232.931884765625	-55.83268737792969	1111.300048828125	297.9174194335938	224.5090942382812	1296.861572265625	274.2909545898438	-70.75010681152344	1271.78125	299.1012878417969	14.41951942443848	1534.560546875	277.234619140625	204.4523162841797	1412.354125976562	263.4072265625	-54.87627029418945	1369.323486328125	396.8563232421875	-4.910161018371582	1507.420776367188	177.8242797851562	61.74240112304688	1485.347045898438	92.71446990966797	14.93176174163818	1352.677612304688	29.16070175170898	19.4617862701416	1134.338745117188	21.80885314941406	-9.508383750915527	1120.1240234375	104.5541915893555	152.9113464355469	913.627685546875	33.47434997558594	66.26380157470703	882.4541015625	15.54724788665771	36.48086166381836	1023.4052734375	10.39577484130859	195.3816680908203	735.0045166015625	54.37188720703125	96.47079467773438	815.6226196289062	15.11598587036133	167.2431640625	836.7183227539062	12.36519145965576	95.14122009277344	1511.413818359375	451.3156127929688	80.08963775634766	1447.244873046875	524.5834350585938	65.06723022460938	1159.253540039062	589.66845703125	47.30559539794922	1149.119873046875	494.4492492675781	211.4022216796875	940.1034545898438	550.2359619140625	146.5604553222656	918.1156616210938	606.3222045898438	94.86832427978516	1087.041870117188	604.2836303710938	236.7359161376953	756.482421875	521.1699829101562	246.1813201904297	849.5443725585938	554.7186279296875	179.7426147460938	837.4077758789062	598.8164672851562	88.62786865234375	1694.354736328125	335.8277282714844	216.0482330322266	1724.553344726562	161.1883087158203	248.9201965332031	1742.008666992188	284.8222351074219	45.30149459838867	1685.345458984375	203.1568298339844	36.51410293579102	1008.601745605469	109.4199752807617	88.78744506835938	1012.8994140625	477.439453125	170.06591796875	1037.677490234375	422.1889343261719	159.2770843505859	1038.632446289062	163.1336669921875	230.2355651855469	535.2778930664062	90.06189727783203	171.5601501464844	671.92138671875	78.0675048828125	167.4782562255859	57.31795883178711	94.67649078369141	196.8435211181641	301.4534606933594	77.82620239257812	380.0579833984375	83.01223754882812	58.98822402954102	347.6772766113281	78.14832305908203	116.4804000854492	261.1996459960938	56.30419158935547	29.37603378295898	138.8140258789062	57.92181015014648	175.1877288818359	88.60114288330078	511.4930419921875	427.52392578125	131.1702270507812	778.5537109375	472.8910827636719	-39.39728546142578	35.06366729736328	392.5776672363281	91.87331390380859	388.8533020019531	403.8183288574219	183.9677429199219	47.47537231445312	371.1317443847656	133.3449554443359	43.98025512695312	324.5213317871094	71.87161254882812	31.97462272644043	436.8821105957031	-86.26168060302734	38.69922637939453	320.9602966308594	
205	2.04	-66.04363250732422	1071.593872070312	355.3713684082031	-67.91484069824219	1073.1083984375	233.3114166259766	-61.45160293579102	1112.155639648438	298.3657836914062	218.7245025634766	1298.023071289062	275.8222045898438	-76.52236938476562	1272.549682617188	299.6211242675781	8.39277458190918	1535.425170898438	278.378662109375	198.6031188964844	1413.520385742188	265.0112609863281	-60.70251083374023	1369.546142578125	397.371337890625	-10.53495597839355	1508.459228515625	178.9134521484375	56.33995819091797	1486.69775390625	93.96498107910156	9.87039852142334	1354.156372070312	29.92461776733398	14.73535251617432	1135.654296875	22.33120155334473	-14.66182231903076	1121.466064453125	104.8146667480469	148.3809356689453	915.1826782226562	34.43279647827148	61.89435195922852	883.9387817382812	15.97018432617188	32.02552795410156	1024.977783203125	10.74997711181641	190.8899993896484	736.5478515625	55.54942321777344	92.16620635986328	817.1334838867188	15.67203807830811	162.9042816162109	838.2627563476562	13.39246463775635	88.61338043212891	1512.1865234375	452.6653747558594	73.30414581298828	1447.985961914062	525.8143920898438	57.53266525268555	1160.19287109375	590.6804809570312	40.16702270507812	1149.9912109375	495.313720703125	202.1647644042969	939.6419067382812	552.908447265625	136.7992858886719	918.5585327148438	608.7506103515625	86.73136138916016	1087.932739257812	605.6693725585938	225.7382354736328	755.5951538085938	524.78759765625	235.9979705810547	848.7026977539062	557.9851684570312	169.1628723144531	837.4697265625	601.77490234375	82.32820892333984	1695.325317382812	337.4296264648438	210.1790008544922	1725.883178710938	163.3039093017578	242.7418823242188	1743.044799804688	287.0471801757812	39.34692764282227	1686.521118164062	204.7277526855469	30.87910079956055	1009.986206054688	109.5628662109375	82.6358642578125	1013.542175292969	478.140380859375	164.0633087158203	1038.524536132812	423.2336120605469	154.0028533935547	1039.928100585938	164.1691284179688	225.4633636474609	536.3585815429688	89.87703704833984	166.9498138427734	673.3882446289062	78.74329376220703	149.7735748291016	59.84146118164062	95.82613372802734	185.9198455810547	303.0784301757812	78.29547119140625	362.7697448730469	80.54449462890625	61.02162551879883	330.1890258789062	76.33566284179688	118.3675155639648	243.5829467773438	56.44449234008789	30.9085578918457	120.8343963623047	61.49129486083984	176.2587432861328	84.80120849609375	512.2532958984375	428.3089294433594	125.7662200927734	779.400634765625	473.7285766601562	-39.73735046386719	34.58235168457031	392.9285583496094	88.86627197265625	389.6365051269531	404.7478637695312	183.1332550048828	48.76972961425781	371.8195190429688	132.7394866943359	44.77545166015625	325.0125427246094	71.72396087646484	31.77615737915039	437.0867919921875	-86.65573120117188	38.42911148071289	321.2120971679688	
206	2.05	-71.75801849365234	1072.221801757812	355.6380920410156	-73.27312469482422	1073.97412109375	233.5889892578125	-66.99564361572266	1112.907470703125	298.6942443847656	212.9923095703125	1299.1025390625	277.3091430664062	-82.24398040771484	1273.20751953125	300.0257873535156	2.376514673233032	1536.205932617188	279.4539794921875	192.7947235107422	1414.591552734375	266.5856323242188	-66.56943511962891	1369.67529296875	397.7755737304688	-16.12125778198242	1509.37841796875	179.9276580810547	51.01520919799805	1487.953857421875	95.14990997314453	4.880443096160889	1355.539916992188	30.62655830383301	10.06827068328857	1136.931396484375	22.67444229125977	-19.77456092834473	1122.697631835938	104.8944091796875	143.8363800048828	916.62060546875	35.10626602172852	57.49798965454102	885.3353881835938	16.14799880981445	27.60025024414062	1026.486694335938	10.88263034820557	186.3286895751953	737.9661254882812	56.41881942749023	87.80476379394531	818.5488891601562	15.9638671875	158.5083160400391	839.68408203125	14.11841678619385	82.05481719970703	1512.834350585938	453.9664611816406	66.47470092773438	1448.590087890625	526.9810180664062	49.99331665039062	1161.017822265625	591.6862182617188	33.01172256469727	1150.723754882812	496.185302734375	192.9061889648438	939.0958251953125	555.5147094726562	127.0725479125977	918.9295043945312	611.1734619140625	78.59778594970703	1088.717041015625	607.0441284179688	214.6824951171875	754.6419067382812	528.3511962890625	225.7953643798828	847.795654296875	561.1696166992188	158.6084136962891	837.4699096679688	604.7068481445312	76.01741027832031	1696.23876953125	338.967041015625	204.263671875	1727.134155273438	165.3367614746094	236.5368957519531	1744.028442382812	289.1863403320312	33.36746215820312	1687.59814453125	206.2450561523438	25.31677055358887	1011.228210449219	109.5998840332031	76.5054931640625	1014.149475097656	478.7532348632812	158.176513671875	1039.289916992188	424.188232421875	148.8362426757812	1041.091918945312	165.1092224121094	220.5461120605469	537.2351684570312	89.62139892578125	162.2472229003906	674.6468505859375	79.29327392578125	131.4931030273438	62.67560958862305	96.78719329833984	174.6728668212891	304.7674865722656	78.64814758300781	344.7883605957031	78.13588714599609	62.83412551879883	312.0186462402344	74.59335327148438	120.0463027954102	225.3096008300781	56.80420303344727	32.23642730712891	102.3070678710938	65.38644409179688	177.1336822509766	81.13548278808594	512.9706420898438	429.1010437011719	120.4724960327148	780.2252197265625	474.5460205078125	-40.06794357299805	34.07318878173828	393.30224609375	85.96485900878906	390.3725891113281	405.7062377929688	182.2697601318359	50.15058135986328	372.5735168457031	132.0914306640625	45.64692687988281	325.5377502441406	71.55405426025391	31.55476760864258	437.3161315917969	-87.04722595214844	38.14809036254883	321.4814147949219	
